<svg version="1.1" id="Layer_1" xmlns="http://www.w3.org/2000/svg" xmlns:xlink="http://www.w3.org/1999/xlink" x="0px" y="0px"
	 width="100%" viewBox="0 0 1024 544" enable-background="new 0 0 1024 544" xml:space="preserve">
<path fill="#000000" opacity="1.000000" stroke="none" 
	d="
M474.000000,227.801331 
	C501.932495,227.800919 529.364990,227.800919 556.575439,227.800919 
	C557.324158,225.635803 556.533813,224.489838 555.988403,223.307571 
	C550.407776,211.210678 544.711121,199.165527 539.299561,186.993561 
	C537.862488,183.761230 535.882751,182.166153 532.453430,181.339874 
	C523.623047,179.212219 517.947815,171.787628 518.122009,163.267502 
	C518.302429,154.443268 524.473328,147.132950 533.424255,145.366684 
	C540.517334,143.966995 546.288391,146.672028 550.690918,152.011383 
	C555.316528,157.621399 556.288513,164.241058 553.100159,170.746841 
	C551.171814,174.681656 551.498596,177.751328 553.278870,181.493286 
	C559.789917,195.179031 566.017700,208.999435 572.362854,222.764236 
	C573.051514,224.258102 573.808960,225.720261 574.470093,227.066132 
	C576.890686,227.383636 577.669800,225.612396 578.661560,224.434280 
	C585.099487,216.787109 591.397461,209.022003 597.855042,201.391754 
	C599.552429,199.386124 599.724426,197.477005 599.228333,194.962021 
	C597.073364,184.036285 604.645996,173.818237 615.434387,172.788437 
	C625.929749,171.786606 635.121887,180.040848 635.291870,190.619690 
	C635.474915,202.016922 627.049377,209.953110 615.366150,209.069733 
	C612.713196,208.869125 610.976257,209.480988 609.351624,211.500061 
	C605.232910,216.618652 600.970825,221.621887 595.925110,227.681259 
	C603.152222,227.681259 609.078613,227.693695 615.004883,227.674759 
	C617.183716,227.667786 618.019348,225.852463 619.178772,224.471313 
	C625.761841,216.629349 636.430115,215.124878 644.177856,220.934570 
	C651.939575,226.754761 653.718872,237.687851 648.253113,245.976044 
	C642.254883,255.071747 628.216003,256.667633 620.887451,248.341217 
	C617.216919,244.170807 613.572266,243.064957 608.432739,243.217957 
	C595.635559,243.598892 595.558716,241.458786 600.440063,254.695221 
	C603.954712,264.225739 607.483582,273.751770 610.886597,283.322296 
	C611.785461,285.850311 613.040222,287.360992 615.816406,288.251343 
	C626.379700,291.638947 631.470764,302.806152 627.272949,312.681427 
	C623.145874,322.390320 611.446350,326.517365 602.121338,321.553772 
	C592.634583,316.504089 589.974854,305.056152 596.083557,295.311920 
	C596.985168,293.873749 597.992859,292.617432 597.311951,290.749725 
	C592.018738,276.231750 586.756531,261.702545 581.266846,246.576309 
	C576.659058,250.475143 573.528931,254.953781 570.235352,259.184052 
	C562.459534,269.171448 555.099182,279.482147 547.336853,289.480438 
	C545.099060,292.362793 546.669250,293.796631 548.342896,295.810547 
	C567.790100,319.211670 566.743042,352.431854 545.632629,372.930145 
	C535.488953,382.779633 523.306946,388.418976 508.830383,388.420258 
	C473.502563,388.423340 438.174561,388.472626 402.847168,388.625580 
	C399.400482,388.640503 398.697388,387.215454 398.617706,384.150909 
	C397.924469,357.498413 417.819824,333.466309 444.781830,328.748810 
	C456.850677,326.637177 469.085663,327.469543 481.190125,327.927612 
	C495.851715,328.482422 506.471832,322.902191 514.369385,310.748535 
	C519.936890,302.180664 522.516174,302.298370 529.623352,309.878448 
	C531.115601,311.470001 531.348755,312.823944 530.255188,314.740875 
	C520.130920,332.487091 505.985321,343.656158 484.521210,343.311188 
	C474.025391,343.142487 463.522034,343.169281 453.026123,343.346893 
	C437.506653,343.609467 422.187927,354.514099 417.168030,368.650879 
	C416.842072,369.568817 416.687347,370.547546 416.482971,371.376312 
	C417.852997,373.522614 419.860474,372.934021 421.590607,372.936096 
	C449.753845,372.970062 477.921356,372.654053 506.079010,373.050110 
	C527.871582,373.356628 548.459290,355.328247 546.750854,329.711273 
	C545.443787,310.112305 528.563110,293.502838 508.979370,293.324768 
	C495.981995,293.206573 482.980621,293.428436 469.985596,293.216553 
	C466.127594,293.153687 464.237854,294.574829 463.227142,298.175140 
	C462.240631,301.689362 460.943024,305.147980 459.441895,308.477692 
	C457.731995,312.270294 454.699982,314.034424 450.489655,312.773102 
	C446.520691,311.584137 444.616943,308.091583 445.596741,303.733429 
	C446.318756,300.522003 447.313721,297.371979 448.284851,293.838806 
	C443.156525,292.848694 438.305389,291.927490 433.606354,290.334747 
	C410.403198,282.469849 396.555115,259.202881 397.369507,236.025009 
	C398.325928,208.804474 418.449554,187.877655 442.686554,183.659988 
	C451.807465,182.072769 460.969086,182.885178 470.110931,182.778610 
	C483.940765,182.617386 497.774292,182.792496 511.605194,182.687683 
	C515.054749,182.661545 518.058289,183.157089 520.879150,185.449982 
	C522.900452,187.093018 525.421570,188.401627 527.931030,189.101532 
	C532.267883,190.311081 533.197571,193.547119 534.187805,197.010757 
	C531.979675,198.923370 529.723816,198.269913 527.661194,198.273849 
	C503.164185,198.320740 478.667053,198.286545 454.169952,198.302917 
	C431.130402,198.318329 413.912354,213.456726 412.769775,236.296112 
	C411.650269,258.674164 428.567749,277.162811 450.620911,277.663452 
	C468.776031,278.075562 486.948425,277.857361 505.111694,277.720367 
	C513.221863,277.659180 521.055176,278.720428 528.507141,281.962769 
	C530.759949,282.942963 532.729065,283.101593 534.311707,281.014404 
	C543.552002,268.827850 552.756714,256.614319 561.949402,244.441772 
	C560.521545,242.714096 558.907776,243.314880 557.516418,243.312546 
	C534.519287,243.273956 511.521301,243.387589 488.525543,243.204758 
	C484.335236,243.171432 482.155914,244.491364 480.915344,248.513275 
	C479.101532,254.393631 476.547089,260.045868 474.741119,265.928192 
	C473.541870,269.834442 471.306976,271.357056 467.410492,270.936676 
	C464.347107,270.606171 461.092072,271.727203 457.652405,269.456360 
	C460.534424,261.113464 463.436737,252.711823 466.677582,243.330185 
	C460.265106,243.330185 454.528351,243.335342 448.791595,243.328079 
	C445.792114,243.324295 442.786407,243.415680 439.794556,243.256409 
	C434.899200,242.995804 431.686951,239.819778 431.731781,235.501160 
	C431.774048,231.430389 434.824341,228.174088 439.512604,227.938797 
	C445.331207,227.646774 451.173492,227.817398 457.005585,227.804611 
	C462.503693,227.792542 468.001862,227.801834 474.000000,227.801331 
M533.767273,158.256989 
	C530.633911,160.461227 529.199829,163.197372 531.612976,166.708908 
	C533.460144,169.396896 536.098328,170.124817 539.039307,168.538422 
	C541.578064,167.168976 543.395142,165.022095 542.235474,162.039444 
	C540.915039,158.643448 538.474548,156.531570 533.767273,158.256989 
M613.858459,186.326889 
	C610.993835,188.711426 610.231445,191.557892 612.557617,194.618332 
	C614.380920,197.017181 617.002869,197.563477 619.711243,196.161133 
	C622.697266,194.614990 623.577576,191.823532 622.359375,188.940033 
	C620.925842,185.546661 618.063232,184.502869 613.858459,186.326889 
M636.796021,230.882446 
	C633.084900,228.563721 630.116943,229.518631 628.119690,233.184998 
	C626.323547,236.482132 628.042786,238.832932 630.769897,240.666611 
	C633.118408,242.245712 635.394043,241.426544 637.091614,239.794769 
	C639.750549,237.238892 639.485718,234.241852 636.796021,230.882446 
M614.390320,309.899200 
	C617.016846,307.266296 617.537720,304.422760 614.746155,301.680939 
	C612.417053,299.393341 609.572327,299.441559 607.093384,301.362030 
	C604.687195,303.226196 604.368530,306.048279 605.854492,308.502808 
	C607.711304,311.570068 610.499695,312.633698 614.390320,309.899200 
z"/>
<path fill="#000000" opacity="1.000000" stroke="none" 
	d="
M579.968140,182.732407 
	C583.736206,182.881943 587.064514,182.334305 591.032104,183.396759 
	C589.866699,188.169373 590.552917,192.892532 590.173584,198.214218 
	C583.990662,198.214218 578.065552,198.226562 572.140625,198.202606 
	C571.095459,198.198380 570.097229,197.784134 569.627563,196.835083 
	C567.523682,192.583588 565.162231,188.428299 563.812134,183.261307 
	C569.297729,182.266006 574.414307,182.948975 579.968140,182.732407 
z"/>
</svg>